/* XPM */
static char *c04e0f5ec3a54c5adee60c20a859e246Sa7GbE3wpQAdRz6a[] = {
/* columns rows colors chars-per-pixel */
"50 50 29 1 ",
"  c #6F4417",
". c #6D441C",
"X c #72471B",
"o c #75491C",
"O c #7D4D1D",
"+ c #7F501F",
"@ c #764B23",
"# c #7B4E23",
"$ c #7A4F28",
"% c #7E5124",
"& c #7E512A",
"* c #804F1F",
"= c #80501F",
"- c #835323",
"; c #885727",
": c #84552A",
"> c #885729",
", c #87582D",
"< c #8B5A2C",
"1 c #905D2F",
"2 c #855730",
"3 c #875830",
"4 c #8D5C32",
"5 c #915E32",
"6 c #905F38",
"7 c #936135",
"8 c #986336",
"9 c #936139",
"0 c #9A6639",
/* pixels */
"O---<-++#045>-<<>-$O-:-:--%-::-%%>4--;>-<<-----&-%",
"---><<--#8>-><<4>-%-:-48>6848777@&<%-%---,,>#%-@O+",
"O--<----o0<;>-><<-%OO=;<><5<7<<<@:<&-:,,:,,,4:&@OO",
"O----7<>#:$$$$@%$@%O+-->->5->><-@-<;-<7<><4><<OXOO",
"O---151<--+OO*=OoO#+OO-<;;7>%;=;$%->--<--4>O+-OX=o",
"-=-;<<5<:;O+===OXXO=OO>7>-;;--;>@@&-:%%&$#&@oX..-O",
"O--<><<<-;*==OO*Oo+=O=-1<>;><---$<:<45<<<>4:-#%@OO",
"==-->5<<-=O===O*OO+=--;-<><<>>-+$><>4><7<<4---OoOO",
";;;;<44<,-O=OOoO+O#-;---=>>55-OO$><4;>-;<<4;>-O@O*",
"-;-<><><:-+OOOO*OO%O-=-O--<>--OO&--<+;-=--6:<--$--",
"::-<,<><:-OOOO==OO%OO=+-=--+=-O-&5><--;--:6----&:-",
":::4,,%::>+-+O+OOO%+OO=-;+++O=oO%-<<--->>1<-O=-#-%",
"=::>>5<>&;-OOo-+Oo:-oOO=--OO+=oO$>47><-->56----@<-",
";---<<>>#--+=O--+O%-OO+O---OO=OO$<>5<<<<518<-OO$<-",
"-<:,>:<>#--%=Ooo%%@OOOOOO#+O%oOO%,,:<,::::6%-$%$%%",
"4>4<<474<3<,<<7775<<4,-%%:<><:854:---<-4<44<-:-<89",
"->3><<<><$>><<<5-7<-===o =+%-%>>1--O-->-=-4OO==-5>",
"-:44<;>:>%>;44>-%<<;=OOOX->>-&<7>-O-><5-OO<--:->>;",
",&:&:,>,:&<-><-;<<>;=OO=O-<7<:<<----1>--OO464:::4:",
"OO---:==-&;:<:--<>--=OOOo--<>&7>----O-+OOO4:+O-+-o",
"OO--+OX*-@->5>OO-;-====O :>--&<<->--OOOO+O<-+O-+OO",
"--%O=OOO%@>75:=O+-OO=+O=X:<4,,:4:,444,,>4,:----OOO",
"=O%-O=O+-@<<-:=O+++OOOOOX:-;-%+O-+><-<+-+O:-<>-++=",
"OO%O+OO++%4--%OO+--+=+OOX:-+----;<>----+-O:->--+=O",
"O=%-+-=--:<--%*O=+=-===OX<->-O--<5>-;<<>:-:O=++OOO",
"O-:;-7<->::---------==O+o4>>---->4<5<15<-O-O-OO+Oo",
"OO%-4<;-:$<-::-----===++o:---;;>>78<;--<----+=OOOO",
"$o@@%$$%$@----OO==-==OOOo&->--74<;><+--;>-$$$$$%#$",
":OOO-++=O@---,+-=%+O+%++ :=<-;<<5>->=--<544<--O-;;",
":O==--+=Oo:33::,%:::&:&:&>---<>><<;;-;-><<45<<--;<",
"-O+++-++O%4<4>55<>-<4><>%:--<><>><;>4<;->:7<7;<;<8",
",#++===+O#>:<8>7<>-:7<<<$:--;;1>;7<<;757;-47<>;-<<",
"-&&::&&::$47<<<<;<--4-<<-,-:<-<>455<5<6<><,<<-O---",
"$%OOO===-@<7>4><1<;->---#<><<45><>5<>>;<><4>:O*O=O",
"@%-O+==-*o>><>>>7<>16<>>%&$:&&&:&:&&:$$$@$::-#-@%%",
"---OO---#@>>-=>5<74<5<<-o:--<>5<<<>:------45<-88<>",
"%OOO==+O+X#OO=<<<><:8<;=O,#-<;4<>45-*-----,<-<<5>5",
":oOoOOOOOXO=*=<<565-<;;-X4<<>-;>><<-->---:4<<5<<--",
"@XXooXXoX.Xo#o-:%:o@:o@o.$&%#@O&:-:Xo@###$3:&%%##%",
"84:<>><>:0<7<4945<,4744<4<<444<436,<,<8885><4<4:68",
">%==*=*Oo6;-15<4-;:-;O*=OOOO#=O-$=oo*=><>-+----$>>",
"-O=*oOOOO154><44->:;-*-=---O%OO-#=OOO->5-+O--OO&>-",
"+%=O*=OOo<<5<<<4<1,-*---=O-O%OO-@=-O==<-----O--&-%",
"-ooOOOOOo84544<4;;:--**--=-*#O-=@=>---<------%%:<-",
"-o=-OOOOo4<O*-<4,<:#-#O--O#+##Oo@--:=;>>-O--O-<3->",
"%#-+OOOOo4:,::2444$3,,444&344444&---=><;OO=OO--&--",
"ooXXXXXXX<----##<>:O--<---O:-=--$OO---<----O--:&oo",
"%--#O##O@5:-->;-><@O--><->>><;<7:-**-><<---%---::O",
"--=-=OOOo5%O==->1>%-%-><><5<<<77&-->-<<7;--->->$-=",
"-:<--=O-O8>>-->;<-%-;-=+--<>-<<-&------>5;---:-&--"
};
