/* XPM */
static char *_0ecc2a4f3fa4059eb896876db2544a8hpPiA5OHcbaSV54r[] = {
/* columns rows colors chars-per-pixel */
"50 50 36 1 ",
"  c #1A0E13",
". c #503C1F",
"X c #77291C",
"o c #6D441C",
"O c #72471B",
"+ c #75491D",
"@ c #7D4D1D",
"# c #7F501F",
"$ c #764B23",
"% c #7B4E23",
"& c #7A4F28",
"* c #7E5124",
"= c #7E512A",
"- c #4B495E",
"; c #80501F",
": c #934325",
"> c #835323",
", c #885727",
"< c #84552A",
"1 c #885729",
"2 c #87582D",
"3 c #8B5A2C",
"4 c #905D2F",
"5 c #855730",
"6 c #875830",
"7 c #8D5C31",
"8 c #915E32",
"9 c #905F38",
"0 c #886B2E",
"q c #936135",
"w c #986336",
"e c #916038",
"r c #9A6639",
"t c #C39942",
"y c #88919D",
"u c #CAD5D7",
/* pixels */
"@>>,3>@#%w773>33,>%@<<><>**<<<>>&18;>1>133>>>>>=>>",
">>>>33>>%w1,31733>%<>>7w3qw3qqq8&>2;>>>>>22<%>*$@#",
"@>>3>>>>$r13,<333>%@@>>313838333$<6<><62<2<22<&&@+",
"@>>,>433%<&%$%$%%%%@@>>3><4,333>$>2>>688138130@OO;",
"#;>>8433>>@;@;;@++@;@@>3>,4,#>>>$>>71>1>>81@;;++;@",
">>>>37q3<,@@;;;@++%;#@1w3>3>>>,3$+>&<%%<%&<$$OOX;;",
"@>>33333>,;;;@@;@@@;@@,333>33>>>&7<37833317<>%;$+;",
";>>>,433>;@;;;@;;@@@>>>13,3333>#&1218148336>>>%+@;",
">,,,3383<>@@@;@@@#%>>,,;;3338>@@&23311>>347<2>;$;;",
">,>33333<>#@@+@@@@%@>;;@>>33>>@@&>13;1>;>>723>>$;>",
"<<>332<3<>@;@@>;@@>@#;yy--;;;>@><713>>1>;19>;;><<>",
"<<<722*<=3@>;@@@@@*;@yyuy--;@;+@>>13>>>1347;@>>&>>",
">>33<333>>>@@+#@@@*>@yyyy  #;;@@&18823>13891>>>$3>",
">>>>34>3*>>#;@>3*@*>@--yyuy @;@+&32433334393>%;$2>",
"23<2<<32%>**;@++**$*%-u-uuyy*@@@&62<22>2<<9>>%;&>>",
"336333w77533338qq7333-uuyy--3<q88>>>>3<33372>><2ee",
"<3<133333*133343>q3>: -yyy-;>*333>;;;>2>;>3;;;;>43",
"><773,313%<,373>>33::: -y- 3,=331<;>134>;@2>;1<13<",
"<==<<<<<<=3>13>333:::::   XX7<331>>283>;;%79755>55",
"@@<>>>;;>=<<3<>>3yyy:::uyyuXX*q3;>>;;;;@@;7>;@;;;+",
";@>>#@+@*$>373@@yyyy-yyyuu--y=33>1>>@@@@@@5>;;>;@;",
">;*@;#@@;$188<#uuyyy yyyyy--yy<72237322<325>1>;@@;",
";@%>#@@@>%33><> uuu -uuyyy-y.y@@;;1313;;;@<>11>;;;",
"@;*;#@@@>%7>>>+0    --yuuuy- .><1311>;>;>@>>1>>;;@",
"@;*>#>;>><3>>*ttt0   ---yy-  .>>181>14311;>;;@;;+;",
"@><>>q3>3=2>>*ttt0   -----   .>>18843348>%>;;@@;;O",
"@@*>77,>3%3>1>0t0>  00----  ..-33888>>>8<;<>;;;@;+",
"$$%$*&%*$$><>yy0##> 000uyyu0 --33>14;>>>1>&$&&%&+;",
"<@#@>@;;#+>>>yyy#@*yy00uuuu0 --381>1;>>18473>;;>1,",
"<@;;>>;;@+<53yyy*<uyyuy    y -- 33,>>1>1337834>>13",
"*@###>##@%733yy-<,uuuyy--  yy  .33>183311293813,48",
"<%##;;;#@%317--003yyyy---  -- .018431888>>8831,>34",
"<==<<=*<<&7q3ttt0uyyu --    y-003883818333233>%;>>",
"%>@@@;>@>$3830tt8uuu --     yy..3283321313921@@;;;",
"%*>@;;;>;+133<008   -- ,     y.<&<&<<&&&$&>>;>;%;;",
"**>@;>>;%$11;>1838---- >     171331<>;>>>>7931983<",
"*@@;;;;@@O@;@;3333--- ,>@    187288>;>>>>1221338<4",
"<@+@@@@@@O@%;;348yuu- >>O -yy-1<133>>11>>>933433><",
"$OOOOOOOOoO@$+*<%yuuy-++o-yyy-$><>5++$@%$%5<&>%%;<",
"q7<33,33<r3q37q78-yy-7733----7385822238r8823738<88",
"1;;;;;;;$8,>3837>--- @;;;    ;@>$;+O;>183>;>;>>&<1",
">@;;+@;+%4883377>--- @>;;   %@@>%;;@@;131;@;>;;&31",
"@%;@;;@@+43433373-- ;>>,>   %@;>$;;;;;3>>>>>@<1&;;",
">@O@@@@;Oq4877371yy 1;@>,  -%@;>$;11>;3>>>>>;;><3,",
">$;;@@@@@83%;>27   y>%%;;-- -@@+$;<<;131;;;>%>35>1",
";%>;@+;@O7<<<<6yuu- <<876  yy--7<;>>;13<;@;;@>><;;",
"O$OOOOO+o4>>>>%yuuy->>3,; -yyy->&;;;>>3>>;>%>>>&+%",
">>>%@%@%$3><>11>13%@>,13>1,23,3w<>;;;1331>>;>>>5<%",
";>@>;@@@@4@@;;,,33%>>>3313833388&<><>3381,>>11<&>;",
">13<>;@>$w31>>113>%>,>;@>>31>33>&>1>>>;181>;>>><>;"
};
