/* XPM */
static char *_65c87a265da4f8bd7d1226a948d2071h4t2G6r50FsFT79i[] = {
/* columns rows colors chars-per-pixel */
"50 50 134 2 ",
"   c black",
".  c #0F0601",
"X  c #140902",
"o  c #320303",
"O  c #3A0303",
"+  c #2E1A06",
"@  c #341F0A",
"#  c #392323",
"$  c #393939",
"%  c #420E06",
"&  c #530101",
"*  c #580606",
"=  c #5C0B0A",
"-  c #5C120C",
";  c #5E1C0E",
":  c #600F08",
">  c #6F0E0E",
",  c #700E0E",
"<  c #731D12",
"1  c #462A0D",
"2  c #4C2E12",
"3  c #4E3012",
"4  c #513217",
"5  c #5D3915",
"6  c #57371A",
"7  c #6D2312",
"8  c #653D17",
"9  c #613D19",
"0  c #66411F",
"q  c #6C431B",
"w  c #72471B",
"e  c #75491D",
"r  c #7D4D1D",
"t  c #7F501F",
"y  c #584234",
"u  c #6D4622",
"i  c #754B23",
"p  c #7B4E23",
"a  c #7A4F28",
"s  c #7E5124",
"d  c #7E512A",
"f  c #6A4141",
"g  c #694848",
"h  c #6E625B",
"j  c #776052",
"k  c #696969",
"l  c #9B0202",
"z  c #841313",
"x  c #921616",
"c  c #9C1414",
"v  c #9C1818",
"b  c #A00404",
"n  c #A90707",
"m  c #A41A1A",
"M  c #AD1D1D",
"N  c #BD1C1C",
"B  c #C41010",
"V  c #C41B1B",
"C  c #CA1E1E",
"Z  c #D31717",
"A  c #D31D1D",
"S  c #DD1B1B",
"D  c #E50000",
"F  c #E50C0C",
"G  c #E61616",
"H  c #E61B1B",
"J  c #E91B1B",
"K  c #DD2121",
"L  c #E52222",
"P  c #E92323",
"I  c #E72F2F",
"U  c #E92C2C",
"Y  c #EA3333",
"T  c #E93838",
"R  c #80501F",
"E  c #835323",
"W  c #885727",
"Q  c #84552A",
"!  c #885729",
"~  c #87582E",
"^  c #8B5A2C",
"/  c #905D2F",
"(  c #855730",
")  c #875830",
"_  c #8D5C32",
"`  c #915E32",
"'  c #905F38",
"]  c #936135",
"[  c #986336",
"{  c #936139",
"}  c #9A6639",
"|  c #955C5C",
" . c #846C5D",
".. c #83766E",
"X. c #897970",
"o. c #967373",
"O. c #967E7E",
"+. c #EB4B4B",
"@. c #F14242",
"#. c #F24C4C",
"$. c #FC4D4D",
"%. c #F35252",
"&. c #FC5555",
"*. c #FC5B5B",
"=. c #D57676",
"-. c #EE6262",
";. c #FD6A6A",
":. c #FD7474",
">. c #FD7B7B",
",. c gray59",
"<. c #BCBCBC",
"1. c #E78A8A",
"2. c #F38282",
"3. c #FD8585",
"4. c #F88D8D",
"5. c #FE9393",
"6. c #FC9B9B",
"7. c #FEA3A3",
"8. c #FEA8A8",
"9. c #FFB5B5",
"0. c #DFD3D3",
"q. c #DADADA",
"w. c #E0C0C0",
"e. c #E6CBCB",
"r. c #FEC4C4",
"t. c #FFCECE",
"y. c #FFD7D7",
"u. c #F4DBDB",
"i. c #FFDADA",
"p. c #EFEFEF",
"a. c #FEE4E4",
"s. c #FEEBEB",
"d. c #FFF2F2",
"f. c #FFFEFE",
/* pixels */
"r E E W ^ E r t p [ _ _ ^ E ^ ^ ^ E p r ! ! s ! E d E Q Q ! E s d ! _ E E E E W ^ ^ E E E E E d E s ",
"E E E E ^ ^ E E p [ ! W W ^ ^ _ ^ E s E E E _ ] ^ ` [ ^ ] ] ` ` i E ^ s E E s E E ^ ~ ! p E E i r t ",
"r E E ^ E E E E p } ! ^ W ! ^ ^ ^ E p r r R W ^ ^ ^ _ ^ ] ^ _ ^ i Q _ d E Q ( ~ ! ~ Q ~ ) ^ s i r r ",
"r E E W E ` ^ ^ p d a p i p i i a i p r r E E ^ E ! ^ ! ^ ! ^ E i E ! E E ^ ] _ ! ^ _ ! ) ^ r w r r ",
"r R E E ` ` / ^ Q E r r R R R r r e p t r r E ^ E ^ ` W t E E E i E E ^ E E ^ E E _ ! r r E r w r r ",
"E E E E ^ ^ ` ^ ! W r r R R R r r e r R r r ! ] ^ E W W E E E ^ i i d Q Q p s Q p p Q i e w q q E r ",
"R E E ^ ^ ^ ^ ^ E E r R R r r r r w t R r R E ^ ^ ^ E ^ ^ E E E d _ E ^ _ _ ^ ^ ^ ! _ Q E p s i e r ",
"R E E E W / ^ ^ E W r R R R r r r e R R R W W W W W ^ ^ W ^ E E i ! ^ ^ _ ^ ^ / _ ^ _ s E E r i r R ",
"E W E ^ ^ ^ ` ^ Q E r t r r r r r t p E W E E E R ^ ! ^ ` E r r i ^ ^ _ E ^ R ^ ^ ^ _ ! ! E R i r R ",
"E W E ^ ^ ^ ^ ^ Q E t r r r r r r r p r E E E r E E ^ ^ E E r r s E ! ^ t W E R E E ' ~ ^ E Q p E E ",
"! ~ E ^ ^ ~ ! ! Q E r r r r r E r r s r r r r E R E E E R E r E d / ^ ^ E E W E E W ` E R E E a Q E ",
"Q Q Q ^ ~ Q s Q d ^ R E t r t r r r s r r r r E E r r r r R r r d E W ^ E E E ^ ! / ) R r E E a E E ",
"s E ^ ^ ! ^ ^ ^ E E E r r e E t r r s 2                 + s e r p ~ _ ] ^ ^ E E ^ ` ' E E E E i ) E ",
"E E E E ^ ^ ! ^ p E E t R r E E e e i h k k k k k k k k h e w w i ^ ^ _ ^ ^ ^ ^ ` ^ { _ E r R p ^ E ",
"~ ^ ! ~ ~ E ) ^ p E E s s r e 8       q.f.f.f.f.f.f.f.f.p.      6 ~ ! Q ! Q Q ! ! Q _ Q s p s i s s ",
"^ ^ ( ^ ^ _ { ^ _ ( ^ ^ ^ ! a  .,.O.| e.s.f.f.f.f.f.f.a.u.| o.,.X.u s E Q ^ E _ ^ _ _ ! Q E ! ^ [ ] ",
"E ~ Q ! ^ _ ^ ! _ s ! ^ ^ d   ,.f.i.7.7.7.d.f.f.f.f.f.6.7.7.r.f.<.  q r E E ^ E t E ^ t r t t E / ^ ",
"E ! _ ` ^ E ^ ! ^ i ! E u j <.w.r.8.3.r.y.i.y.f.f.i.i.i.t.3.6.r.w.<...5 Q ^ _ E r r ~ E E ^ E ^ ! W ",
"Q d Q d Q Q ! ! d d ~ E   k f.i.*.*.*.i.f.9.6.f.f.7.8.f.d.&.*.*.r.f.,.  Q ^ E E r r _ _ ) Q Q Q ) Q ",
"r r Q E p ! R R E d 2 y q.0.7.5.*.>.5.7.7.3.;.f.f.:.>.7.7.5.3.*.3.7.e.q.h 1 t r r s _ ! t r E t R r ",
"R r s E t r w R E i   $ f.d.&.*.*.3.7.>.*.&.$.f.f.&.*.*.;.7.5.*.*.*.i.f.k   r r t r ~ E t t E t r r ",
"E E s r R r r r t i   # 9.8.U @.*.%.+.T P a.d.f.f.d.s.J Y +.%.*.#.I 6.9.g   Q Q ) ~ ! E E E E r r r ",
"R r s R r R r t R i   # 7.6.F T *.@.G D D s.f.f.f.f.d.D D G Y *.@.G 4.7.f   r R R r ! E ^ W E t R R ",
"r r s E t r r R E p   o Y +.7.7.7.6.7.a.f.f.f.f.f.f.f.f.d.7.6.7.7.7.-.Y =   E E E r Q E ^ E E r R r ",
"r R s E t E E E E Q   o P +.7.7.7.7.7.s.f.f.f.f.f.f.f.f.d.7.7.7.7.7.-.P =   ^ ! ! E Q r R r E r r r ",
"r E E W E ] ^ E ^ Q Q E   O c c c =.7.-.G n l d.f.l b G +.7.1.c c c *   Q / ^ / E r E r E r r R r r ",
"r r s E _ _ W E ^ i Q E . % v v v =.7.-.I M l f.f.b m Y +.6.1.v v v - X p E E ^ E E Q E r E r r r r ",
"p i i i s s i s p i E ! E p   = v V G 4.7.+.D f.f.G Y 7.6.F Z v ,   i ^ r E E W ! E a p a p p a i p ",
"E r t r E t R R t e E E E d @ ; x N S 2.6.+.D d.d.G I 6.5.S C x < @ e ^ E E E ^ _ _ _ ^ E R r E ! W ",
"Q r R R s E R R r i Q Q ( ( Q u   , v A G L G 6.7.H L H S v z   0 ^ ! E E E t ^ ^ ^ _ ` ^ / E E ! ^ ",
"Q e t t t E t t r p _ ^ ^ ^ ^ Q 3 7 z V A L G 7.8.H L A C z < 3 e ^ E ^ ` ^ ^ E ^ ! { ^ ` ! ^ E ^ ` ",
"! s t t t R R t r p ^ ! ^ ] ^ ] ^ 0   z v K G 7.7.L L v x   4 ^ W ] ^ ^ ^ _ ` ] E E _ ` ^ ^ ! W ^ ` ",
"Q d d Q Q d d Q Q a _ ] ^ _ ^ ^ E a 5 7 , N B 7.7.V V > < 9 i ^ ^ _ _ _ ` ^ ` ^ ! ^ Q _ ^ E R R E E ",
"p s r r r R R R E i ^ ` ^ ^ ! ! ` ^ ! 2   x l 7.7.c v   @ _ _ ! ^ ! ` ^ ! ~ ! ^ ! ^ ` ~ E p r R R p ",
"i s E r t R R E R r Q ! ^ ! ! ! ' ` ! E a ; & -.-.* = u u d d Q d Q d d Q a a i i p Q Q R R E i p R ",
"E E E r R E E R p i ! ! R R ^ ` ^ ` ^ ^ ` @   L P   . Q ^ ! _ ^ ^ ! ! W E E E E E E _ ` _ W [ ' ^ ! ",
"s r r r t R r r r w p R r E ^ ^ ^ ^ ^ E ' Q E : = d r E ^ ! ` ^ ~ ^ ` E E E E E E ! Q ! E ^ ^ ` ! _ ",
"Q r r e r r r r r w r R R R ^ ^ ` ` / W ^ W E .   _ ^ ^ Q R W W ^ ^ ^ E E ! ! E E E ' ^ ^ ` ^ ^ E W ",
"i e w w e w w w w q e e i e s Q a Q e i ( w i w q Q d s p p i d Q Q Q w w i r p p p ( Q d E p p p Q ",
"] ( ^ ^ ! ^ ^ ^ Q } ^ ` ^ ` ] _ ` ` ~ ` ` ` _ ^ ^ ) ^ ^ ) ` ^ ` ( ` Q ^ ~ ^ [ } [ ` ! ~ _ ^ ` Q ` ` ",
"W r R R R R R R i ` W R ` ` ^ ) E W Q E E R R R R R R r a R r E p R w r R R ^ ^ ! E r E E E E i ! ! ",
"E r R R w r R e p / ` ` ^ ^ ` _ E ^ Q ! E R E R R R R r a r r E p R r r r R ! ` W s r R E R r d ~ ! ",
"r p R R R R r r r / ^ ` _ ^ ^ _ ^ ^ ! E R R W E R R E r E r R E i R R p R R ^ E E E E E r ! ! d R R ",
"R r w r r r r R w ` ^ ` ^ ^ _ _ W ! Q R Q R r E Q R R R a r R R i R ! ! E R ^ E E E E E p p E Q ! W ",
"E i R E r e R R r ` ^ p R Q ! _ ! ^ E p E R a E R e R R a p R r i E Q E R E ^ W R R E E r E ^ ( W W ",
"R p E R e r R r w _ Q Q Q Q ) _ ' ( ( ( ( Q ` ^ ) Q ) ) _ ^ ^ ) a E E E E ! ^ W r r r R r E E Q R E ",
"w i w e w w e e q / E E E E p R ^ ^ E R E R ^ E R E R ! E E E W p r R E E E ^ E E E E R E s E d w i ",
"E E R p r p r p i ^ E Q E ! W E ! ^ i R R Q W ^ W ! W ~ ^ W ^ ` Q E R R E E ^ ^ W E E p E E ! Q W p ",
"R E R E R r r r r ` p r R R E ! ^ ^ p R E Q ~ ^ ^ ^ ` ^ ^ ^ ` ` a ~ E W E ^ ^ ` W W E E ! ! ! i E R ",
"E ! ~ ! E R r R R ' ^ W E W W W ^ E E R W E R r E E ^ ! R ^ / E a E ! E E E E ! ` ! R R E Q W a E E "
};
