/* XPM */
static char *_b024dd4070640bf866a9d2c60844c937TiCGcHuPjeo7tyg[] = {
/* columns rows colors chars-per-pixel */
"50 50 149 2 ",
"   c #1A0E13",
".  c #2A1710",
"X  c #2D1912",
"o  c #341D15",
"O  c #2B221F",
"+  c #392017",
"@  c #3D231A",
"#  c #2D2523",
"$  c #2D2D2D",
"%  c #382621",
"&  c #352A25",
"*  c #3B2B26",
"=  c #332F2C",
"-  c #35302D",
";  c #3C312D",
":  c #353534",
">  c #3A3331",
",  c #3E3937",
"<  c #3A3939",
"1  c #43261C",
"2  c #47291E",
"3  c #55321F",
"4  c #503C1F",
"5  c #77291C",
"6  c #432C23",
"7  c #4B3023",
"8  c #44332B",
"9  c #4C352A",
"0  c #543322",
"q  c #5A3622",
"w  c #51372C",
"e  c #523C2F",
"r  c #583D2E",
"t  c #403431",
"y  c #453B37",
"u  c #4E3F37",
"i  c #443F3C",
"p  c #4C3F3A",
"a  c #613B27",
"s  c #653E29",
"d  c #6D441C",
"f  c #72471B",
"g  c #75491D",
"h  c #7D4D1D",
"j  c #7F501F",
"k  c #46413E",
"l  c #4C443F",
"z  c #554035",
"x  c #53433B",
"c  c #5C4639",
"v  c #6B432D",
"b  c #764B22",
"n  c #7A4E23",
"m  c #71462E",
"M  c #74482F",
"N  c #7A4F28",
"B  c #7E5124",
"V  c #7E512A",
"C  c #634430",
"Z  c #6B4631",
"A  c #6B4C37",
"S  c #614738",
"D  c #63483B",
"F  c #6B4E3B",
"G  c #754A31",
"H  c #7A4E35",
"J  c #734F39",
"K  c #7C5037",
"L  c #7D533A",
"P  c #424242",
"I  c #4C4645",
"U  c #4B4A4A",
"Y  c #554841",
"T  c #5E4D43",
"R  c #4B495E",
"E  c #624D44",
"W  c #64554D",
"Q  c #68564A",
"!  c #6A584C",
"~  c #7B5A44",
"^  c #735648",
"/  c #72594C",
"(  c #7F5F48",
")  c #695A52",
"_  c #746256",
"`  c #7A675A",
"'  c #80501F",
"]  c #934325",
"[  c #835323",
"{  c #885727",
"}  c #84552A",
"|  c #885729",
" . c #87582D",
".. c #8B5A2C",
"X. c #905D2F",
"o. c #875830",
"O. c #8D5C32",
"+. c #82563C",
"@. c #84593E",
"#. c #915F32",
"$. c #905F38",
"%. c #886B2E",
"&. c #946135",
"*. c #986336",
"=. c #916038",
"-. c #9A6639",
";. c #855B41",
":. c #895D42",
">. c #8D6246",
",. c #826149",
"<. c #8C644A",
"1. c #8D684D",
"2. c #906447",
"3. c #916649",
"4. c #94694C",
"5. c #986C4E",
"6. c #8D6B55",
"7. c #936D51",
"8. c #9A6F51",
"9. c #9D7355",
"0. c #9C7559",
"q. c #9F785B",
"w. c #A17557",
"e. c #A27759",
"r. c #A67A5C",
"t. c #A97D5D",
"y. c #857366",
"u. c #8C7A6C",
"i. c #8D7C70",
"p. c #978579",
"a. c #99877A",
"s. c #9D8B7F",
"d. c #AD8160",
"f. c #B18564",
"g. c #C39942",
"h. c #88919D",
"j. c #A29286",
"k. c #A69589",
"l. c #D2D0CF",
"z. c #CAD5D7",
"x. c #D8D5D3",
"c. c #DCD9D7",
"v. c #E2DEDC",
"b. c #E8E7E7",
"n. c #E9E8E7",
"m. c #ECEAEA",
"M. c #F2F0EE",
"N. c #F7F6F5",
"B. c #F8F5F3",
/* pixels */
"h [ [ { ..[ j j b -.O.#...[ ....{ [ n h [  .[  .[ [ ' } } } } ' n | #.' [ { | { ....[ [ [ [ | N [ ' ",
"[ [ [ [ ....[ [ B *.N.n.m.M.M.B.B.B.B.B.B.B.B.B.N.N.B.B.B.B.B.B.B.B.B.B.M.m.m.B.[  ...| n ' ' b n ' ",
"h [ [ ..[ [ [ [ g -.l.z ! u.u.u.u.u.u.a.s.s.s.s.j.s.s.s.s.u.u.u.u.u.u.u.u._ T l.|  .}  .O. .' b ' h ",
"h [ [ { { #.....B V l.z * 9 w w w w w w w w w w 9 w w w w w w w w w w w 9 6 Q l.| ..O.| ..| n f g ' ",
"h [ [ [ ..X.....} [ l.y.. X o o + + @ @ @ @ 1 1 2 2 2 2 2 7 2 2 2 2 2 1 X X _ x.[ O.| g ' ' g g ' h ",
"[ ' [ { ..#.#... .{ x.y.o X X X o + + + + + + + o + + o o o o o @ o o X . o _ x.n b } b g g f d ' ' ",
"h [ [ ..| X.....B [ x.y.@ X q G M M G v G K K v G G M M s H H +.+.v M M 1 1 _ c.O.| O.} [ n ' b g h ",
"' [ [ [ { #.....}  .x.j.@ X q M M M M G >.@.4.G +.5.+.:.G 2.+.3.2.M 4.M 1 1 _ v.....O.[ [ [ n b h ' ",
"[ { [ { ..O.#... .[ x.k.@ + v @.G G M G >.@.4.G +.>.2.3.G :./ 6.2.M 4.M 1 2 _ v.....$.| ..[ ' b ' ' ",
"[ ..[ ..| ..| ..} [ x.k.@ @ Z @.M K H G >.:.w.J ^ 8.2.4.G u e I D G 4.;.1 2 _ v.[ [ O.| ..' } N ' [ ",
"|  .[ .. ...|  .} [ x.k.@ @ Z L m :.+.+.9.w.0.u w u 2.4.G J w.;.: M e.:.1 2 _ v.[ | $.[ ' [ ' N } [ ",
"} } } O... .n | } | x.k.@ @ J @.H 2.+.+.w.w.9.G h.h.R R G 4.e.E = v r.<.7 2 _ v.| X.o.[ h ' [ N } ' ",
"B [ | ..........V { x.k.1 @ L ;.K >.+.E W ) W h.h.z.h.R R W W P < p E x : * _ v...#.$.{ [ [ [ n ..[ ",
"[ [ [ [ ..O.[ ..n [ x.k.1 1 @.;.;.4.~ y < < < h.h.h.h.    < < < < < < : $ * _ v.#...$...[ ' ' n  .[ ",
" ...|  .| } .. .n [ x.k.1 1 >.;.@.4.@.K <.7.~ R R h.h.z.h.  7.E 8 s 1.:.8 % _ v.[ } $.[ n n ' N ' } ",
"....o... ...&.O...o.x.k.1 1 7.>.;.4.;.+.r.f.4.R z.R z.z.h.h.d.r.: J r.w.0 7 _ v...O.O. .} [ | ..$.*.",
"[ |  .| ......| ..n x.j.1 1 1.>.:.3.:.+.9.f.4.R z.z.h.h.R R d.q.: G t.w.0 2 _ v.h [ O.h n ' ' [ X...",
"[ } O.#...| | | | N x.s.1 2 <.4.9.3.:.@.9.f.]   R h.h.h.R J Y k ; H r.r.0 2 _ v.h h  .[ ' } [ | | { ",
"o.V N } } o.| | } N x.p.1 1 3.e.r.4.:.@.w.] ] ]   R h.R   <.0.( m +.w.f.0 2 _ v.h h O.$.O.o.} } o.o.",
"h h } } ' [ ' ' [ V x.p.1 7 <.w.t.2.:.:.] ] ] ] ]       5 5 f.d.+.+.e.f.0 2 _ v.h ' O.} ' h ' ' ' g ",
"h h [ ' h h f h [ b x.p.1 2 3.r.f.:.:.h.h.h.] ] ] z.h.h.z.5 5 t.G @.t.t.0 2 _ v.h h  .' ' ' { h h h ",
"[ [ } h ' h h ' [ b x.p.1 6 >.r.d.3.h.h.h.h.R h.h.h.z.z.R R h.t.v +.r.t.0 2 _ v.O. . .[ [ | [ h h ' ",
"' h N ' h ' h h ' b x.p.1 1 <.t.d.z.z.h.h.h.  h.h.h.h.h.R R h.h.Z @.r.t.0 2 _ v.' h } [ ..[ [ h ' ' ",
"h ' n ' ' ' h ' [ b x.p.1 2 ;.d.d.  z.z.z.  R z.z.h.h.h.R h.4 h.M :.r.t.0 2 _ v.' h } [ | { [ ' ' h ",
"' ' B [ j [ [ [ [ V x.p.2 1 U < ,.%.        R R h.z.z.z.h.R   4 M :.r.d.0 1 _ v.[ [ } h ' h h ' h h ",
"h ' | [ [ &...[ ..} c.p.I t U < g.g.g.%.      R R R h.h.R     4 G >.r.t.3 7 _ v.[ h [ h ' ' h h h h ",
"h h n [ O.....[ ..N v.p.P : U < g.g.g.%.      R R R R R       4 M 3.r.0.0 1 _ v.| [ } [ ' [ h h h h ",
"n b n b B N N n b b v.p.: $ < $ %.g.%.P     %.%.R R R R     4 4 R 3.r.7.0 1 _ v.| [ N n N N N N b N ",
"} h j h [ j ' ' h g v.p.* & < h.h.%.S < #   %.%.%.z.h.h.z.%.  R R ;.r.4.0 2 _ v.#...O...[ ' h [ { { ",
"} h ' ' ' [ ' ' h b v.p.1 1 # h.h.h.;.= = h.h.%.%.z.z.z.z.%.  R R >.r.4.0 1 _ v.....O.#.....{ [ | { ",
"B h j j j [ ' ' h B v.p.1 1 s h.h.h.;.G z.h.h.z.h.        h.  R R   r.4.3 1 _ v...| =...X.....{ X.#.",
"| n j j ' ' ' j h n v.p.1 1 v h.h.R >.K z.z.z.h.h.R R     h.h.    4 r.1.0 1 _ v.[ [ O.&.....{ [ ..X.",
"} V V } [ V V V } N v.p.2 1 v R R %.%.H h.h.h.h.R R R     R R   0 %.q.1.7 1 _ v..... .....[ j j [ [ ",
"n B h h h ' [ ' [ b v.p.1 1 C g.g.g.%.z.h.h.z.  R R         h.R %.%.9.4.0 @ _ v.{ ..#.| } j h j ' n ",
"n B [ h ' ' [ ' [ b v.p.1 1 Z %.g.g.2.z.z.z.  R R           h.h.4 4 8.4.0 + _ v.g B V } B B B n n ' ",
"B [ [ h ' ' { ' ' b v.i.1 1 v t.%.%.4.      R R   =           h.4 q.3.7.0 + _ v.[ [ O.=...[ &.&...| ",
"B h h h ' ' h h [ f v.i.1 1 Z r.e.8.4.E R R R R   I           i < ^ F Q > # _ v.[  . . .{ ......| #.",
" .g h g h h h ' g f v.i.o 2 v 0.8.5.>., R R R   : < <         < < < < : - O _ v.[ [ O.....&.{ &.[ [ ",
"b g f f f f f f f d v.i.o 1 s 0.5.4.2.h.z.z.R   r * J   R h.h.R & ~ C A > O _ v.h B o.} B V B g N } ",
"&.o.....{ ......} -.v.i.@ 1 a 9.>.2.:.h.z.z.h.R :.> 4.R h.h.h.R : 8.@.2.q + _ v.&.#. ...O...#.} #.#.",
"..' ' ' ' ' ' h g &.v.i.o 1 r r.@.2.+.R h.h.R A y ; @.R R R R 9.< >.L >.0 + _ v. .[ j [ [ [ [ n | | ",
"[ g ' ' h h h h n X.c.i.. 6 a w.@.2.H R R R   +.J H H         l - >.L >.q + _ v.{ j j ' [ ' j V | { ",
"h n h h h ' h h g X.v.i.. 1 a 2.@.2.m R R R   +.:.+.G       ~ ~ v M J >.q + _ v.B [ [ [ h [ | V [ ' ",
"[ g h h h g h ' f *.x.6.. 1 a M @.2.a R R   4.+.L G v       :.4.M G G <.q + _ c.[ [ [ [ [ B B V ..[ ",
"[ g ' [ h g ' h g #.x.` . 1 a M +.@.3 h.h.  +.K G v v     R >.4.v M m H q + _ x.[ ' [ [ h [ ..o.{ { ",
"[ n [ ' h h ' h g O.x.` . X a M v v       h.s a v 3 s R R   R v s v v v 1 X _ x.h h h ' h [ [ V [ ' ",
"f b f f f g f g f ..x.` . X X X X h.z.z.R   1 1 1 1 1     h.h.R R @ @ o . X Q l.[ [ ' h [ [ | V g b ",
"} [ ' ' b ' g h b X.l.c . X 1 1 1 h.z.z.h.R 1 1 2 2 2   R h.h.h.R 1 @ o X X Q x.[ [ [ [ B [ } } | g ",
"' [ h [ ' h h h b #.B.m.b.b.n.n.n.n.b.b.b.n.n.n.b.b.n.b.b.n.n.n.b.b.n.b.b.b.n.B.| [ [ [ | [ | N [ ' ",
"[ | | | [ ' h ' n *...| [ [ { { ..[ [ [ | [ [ h [ [ ....' ..X.' n [ { [ [ { [ | #.| [ [ [ | | N [ [ "
};
