/* XPM */
static char *_ed462c4b17c48b9972d2167a2c15425U7dnipKgCcUpLg7O[] = {
/* columns rows colors chars-per-pixel */
"50 50 160 2 ",
"   c #2A1710",
".  c #2D1912",
"X  c #341D15",
"o  c #392017",
"O  c #3E231A",
"+  c #2D2523",
"@  c #2C2C2C",
"#  c #352A25",
"$  c #3B2B26",
"%  c #342F2C",
"&  c #35302D",
"*  c #3C312D",
"=  c #353434",
"-  c #3A3432",
";  c #3F3A37",
":  c #3A3939",
">  c #43261C",
",  c #47291E",
"<  c #532F1D",
"1  c #55321F",
"2  c #432C23",
"3  c #453127",
"4  c #4D3123",
"5  c #44342C",
"6  c #4C352A",
"7  c #543322",
"8  c #5A3622",
"9  c #51372C",
"0  c #593D2D",
"q  c #453630",
"w  c #443B37",
"e  c #4E3F37",
"r  c #433E3B",
"t  c #4C3F3A",
"y  c #503C33",
"u  c #593F31",
"i  c #613B27",
"p  c #653E29",
"a  c #6D441C",
"s  c #72471B",
"d  c #75491D",
"f  c #7D4D1D",
"g  c #7F501F",
"h  c #554035",
"j  c #53443C",
"k  c #5B463A",
"l  c #5E493B",
"z  c #66412B",
"x  c #6C432D",
"c  c #764B22",
"v  c #7A4E23",
"b  c #71462E",
"n  c #73482F",
"m  c #7A4F28",
"M  c #7E5124",
"N  c #7E512A",
"B  c #654634",
"V  c #6B4631",
"C  c #6B4A35",
"Z  c #614738",
"A  c #624A3C",
"S  c #6B4E3B",
"D  c #704730",
"F  c #754A31",
"G  c #794E34",
"H  c #734F39",
"J  c #6E503C",
"K  c #7C5037",
"L  c #73533E",
"P  c #7D543B",
"I  c #424242",
"U  c #4B4645",
"Y  c #4B4B4B",
"T  c #554841",
"R  c #5E4E44",
"E  c #534B48",
"W  c #594E49",
"Q  c #624D44",
"!  c #645044",
"~  c #6C5344",
"^  c #64554D",
"/  c #6A5649",
"(  c #6A584C",
")  c #735845",
"_  c #7C5A43",
"`  c #735648",
"'  c #735A4B",
"]  c #7D5E48",
"[  c #675951",
"{  c #695A52",
"}  c #735E52",
"|  c #746256",
" . c #7B6355",
".. c #7A675A",
"X. c #7E6B5F",
"o. c #80501F",
"O. c #835323",
"+. c #885727",
"@. c #84552A",
"#. c #885729",
"$. c #87582D",
"%. c #8B5A2C",
"&. c #905D2F",
"*. c #855731",
"=. c #875830",
"-. c #8D5C32",
";. c #82563C",
":. c #84593E",
">. c #915F32",
",. c #905F38",
"<. c #946135",
"1. c #986336",
"2. c #916038",
"3. c #9A6639",
"4. c #855C41",
"5. c #895D42",
"6. c #866147",
"7. c #8D6246",
"8. c #82624B",
"9. c #8C6449",
"0. c #8E684D",
"q. c #906447",
"w. c #916649",
"e. c #94694C",
"r. c #986C4E",
"t. c #8D6B54",
"y. c #946D51",
"u. c #9A6F51",
"i. c #977156",
"p. c #9C7254",
"a. c #92715C",
"s. c #9C7559",
"d. c #9F785B",
"f. c #A17557",
"g. c #A27759",
"h. c #A67A5B",
"j. c #A97D5E",
"k. c #857366",
"l. c #8C7A6C",
"z. c #8D7C70",
"x. c #AB7F60",
"c. c #928175",
"v. c #978579",
"b. c #99877A",
"n. c #9D8B7F",
"m. c #AD8160",
"M. c #B28564",
"N. c #A29286",
"B. c #A69589",
"V. c #D2D0CF",
"C. c #D4D2D1",
"Z. c #D8D5D3",
"A. c #DCD9D7",
"S. c #E2DEDC",
"D. c #E8E7E7",
"F. c #E9E8E7",
"G. c #ECEAEA",
"H. c #F2F0EE",
"J. c #F7F6F5",
"K. c #F8F5F3",
/* pixels */
"f O.O.+.%.O.g g v 1.%.>.$.+.%.%.+.@.f d O.#.O.$.O.v O.@.@.@.O.O.v #.>.o.O.+.#.O.%.-.O.O.o.+.#.O.O.O.",
"O.O.O.O.%.%.O.O.M 1.J.G.G.G.H.K.K.K.K.K.K.K.J.K.J.J.K.K.K.K.K.K.K.K.K.K.G.G.G.J.O.%.$.#.c O.v c f v ",
"f O.O.%.O.O.O.O.d 3.V.h ( l.l.l.l.l.l.b.n.n.n.N.N.b.n.n.N.l.l.l.l.l.l.l.l.| R V.#.$.@.$.-.$.m c f f ",
"f O.O.+.+.>.%.%.M N V.k 3 6 6 9 9 9 9 9 9 9 6 9 9 9 9 9 6 9 9 9 9 9 9 9 9 2 / V.#.%.-.#.%.%.f s d o.",
"f O.O.O.%.&.%.%.@.O.V.k.  . X X o o O O O O > > , , , , > 4 , , , , , >     | Z.O.-.#.f o.o.d d f f ",
"O.o.O.+.%.>.>.%.$.+.V.k.X . . . X o o o o o o o o o o o X X O X X X X X   X | Z.v c m c c s s a o.o.",
"f O.O.%.#.&.%.%.N O.Z.k.O . 8 b n n F b F K K b F F n n p G n ;.;.b n F , > | A.%.%.-.@.O.v o.c d f ",
"o.O.O.O.+.>.%.%.@.+.Z.N.O . i n n F n F 5.:.e.F ;.e.;.:.F q.;.w.7.n e.n , > | S.>.#.-.O.O.O.f c f o.",
"O.+.O.+.%.-.>.%.$.O.Z.B.O X z :.F F F F 7.:.e.H ;.7.q.e.F 5.} t.w.F e.D > , | S.%.-.-.#.#.O.o.c o.o.",
"O.%.O.%.#.%.#.%.@.O.Z.B.O > x :.n K G G 7.:.f.H ` u.q.e.F t y U B F e.4.> , | S.o.O.,.#.%.O.O.m o.O.",
"#.$.O.%.$.%.#.$.@.O.Z.B.O O C P n 5.;.K p.f.f.u 9 y q.e.F C f._ : b h.5.> , } S.O.#.>.O.o.O.o.m @.O.",
"@.@.@.-.%.$.v #.@.#.Z.B.O O L P G q.;.;.f.f.u.H 5.% 5.e.F e.f.~ % x h.6.4 , | S.#.&.=.O.f O.+.m O.O.",
"M O.#.%.%.%.%.%.N +.Z.B.> O P 5.K 9.;.Q [ { ^ W E Y W ^ W ^ [ I : t Q j = $ | S.%.>.,.+.O.O.O.c -.O.",
"O.O.O.O.%.-.O.%.v O.Z.B.> > P 5.5.w.P w : : : : : : : : : : : : : : : = @ $ | S.>.%.2.%.O.f v v #.O.",
"$.%.#.$.#.@.%.$.v O.Z.B.> > 6.5.4.e.4.K 5.y._ p _ 6 5._ B 4.t.~ * p 0.6.5 $ | S.O.@.,.O.@.v v m O.O.",
"%.%.=.%.$.%.<.-.%.=.Z.B.> > r.7.4.e.4.;.h.M.e.x u.= u.e.G e.x.g.: F j.f.1 > | S.%.-.-.%.O.O.+.%.,.,.",
"O.#.=.#.%.%.%.#.%.v Z.N.> > 0.9.5.w.5.;.p.M.e.0 w q u.e.G L M.d.: F j.p.7 , | S.o.O.>.o.f f O.O.%.%.",
"O.#.-.>.%.#.#.#.%.m Z.n., > 9.e.p.9.5.;.p.M.e.x e.5.u.e.K H T r * G h.h.7 , | S.f f $.O.O.#.O.#.%.#.",
"*.N N N @.*.%.#.@.N Z.v.> , 0.f.h.e.5.:.f.h.e.n m.w.p.e.G w.d.] F ;.f.x.7 , | S.v f -.-.-.$.@.O.=.=.",
"f f @.O.O.O.o.o.O.N Z.v.> , w.p.m.w.5.5.j.j.e.n m.9.p.e.F q.M.x.G ;.h.j.7 > | S.f o.-.@.v f O.o.o.d ",
"f f O.O.o.f s f M c Z.v.> , 9.h.m.7.5.5.M.m.e.n m.w.f.e.F 9.m.j.G ;.j.M.7 , | S.o.f %.o.o.v +.f f f ",
"O.O.M f o.f f f o.c Z.v.> , 7.j.m.w.5.5.M.m.e.x m.p.p.e.b 5.j.h.p ;.h.x.7 , | S.-.#.$.O.O.+.O.f f f ",
"o.f M O.f o.f f O.d Z.v.> , 6.j.m.7.5.:.M.m.e.n j.f.p.w.F 5.M.j.x :.j.x.7 , | S.o.f @.O.%.+.o.f o.o.",
"f o.v g o.f f o.o.v Z.v.> 2 4.m.m.w.5.P M.m.e.n h.h.9.e.F 9.m.p.F 5.h.x.1 , | S.o.f @.O.%.O.O.o.o.f ",
"f o.M o.g o.O.O.O.N Z.v.> , Y : 8.e.4.Y : h.e.x 8.m.w.r.b u.m.g.n 5.h.x.7 , | S.O.O.#.f o.o.o.o.f f ",
"f O.@.@.O.<.%.O.%.@.A.v.U q Y : Q ( l I = { ~ e w d.u.p.G p.g.h.F 7.h.j.7 , | S.O.v O.f o.f f o.f f ",
"f f M O.-.-.+.O.%.m S.v.I = U = : I @ I = Y : % ; s.h.u.K g.g.j.F q.h.s.7 > | S.#.O.O.O.o.o.f f f f ",
"v c v c M c M M c c S.v.= @ : = @ @ @ I @ @ @ & - 0.m.u.F p.h.j.F 9.h.y.7 > | S.#.O.m m m m m m c v ",
"@.f g f @.g o.o.f d S.v.$ # = @ l J Z : @ ) S h 5 6.h.f.F p.j.f.F 5.h.e.7 > | S.>.-.-.%.O.o.f O.+.+.",
"@.f o.o.g O.o.o.f c S.v.> > + % ] e.4.# % p.w.G 9.p.p.f.x p.M.h.F 5.h.e.7 > | S.%.%.-.>.%.&.O.O.#.%.",
"M f f g g O.g g f M S.v.> > z x.m.e.5.F y.j.w.F e.h.p.f.b p.h.h.x u.h.e.7 > | S.%.#.>.%.>.#.%.O.%.>.",
"#.v g g O.o.o.g f v S.v.> > z M.M.e.9.K f.m.e.H 7.h.u.f.n p.f.h.x p.h.e.7 > | S.O.O.-.>.%.%.+.+.%.>.",
"@.N N @.O.N N N @.m S.v.> > x j.M.e.7.P u.f.u.F 5.j.u.f.x p.a.i.G p.f.e.7 > | S.%.%.#.%.%.O.v f O.O.",
"v M f f f o.O.o.O.c S.v.> > B h.M.5.7.F u.h.u.4.8.f.y.f.x j e U B p.p.e.7 o | S.#.%.-.%.#.f f M o.f ",
"v M O.f o.o.O.o.O.c S.v.> > x h.j.e.q.x u.u.u.k q T u.f.b B p.t.; p.u.y.7 o | S.c m N @.M v O.f v O.",
"M O.O.f o.O.O.o.o.c S.c.> > z j.j.u.e.F h.e.f.D 5.& y.f.F y.f.] = p.w.y.7 o | S.O.O.-.<.%.#.<.<.%.#.",
"M f f f o.o.o.f o.s S.v.> > V j.f.u.e.Q  .} } ^ W U } ` k ` ' r : ' ! ~ - + | S.@.O.@.#.+.%.>.-.#.-.",
"@.f f d f f f f d a S.z.o > V p.u.e.5.w : ; ; : : ; : : : : : : : : : = % + | S.O.@.,.%.%.%.%.%.O.#.",
"c d s s s s s s s a S.z.X > p d.u.e.q.F B B _ 0 0 $ S ) 4 H H A # _ B C * + | S.f v =.@.M N M f m O.",
"<.=.$.%.%.+.%.%.@.3.S.l.O > 0 u.9.q.5.F 9.5.h.H 5.- w.f.p f.p.i.- u.:.7.7 X | S.<.>.%.%.-.%.-.@.>.>.",
"+.o.o.o.o.o.o.o.f >.S.l.X > i h.5.q.;.F 5.4.h.C w 5 :.e.x ;.u.i.: 7.P 7.7 o | S.%.M M O.o.O.+.v #.#.",
"o.f o.o.s o.o.s f &.S.z.  > i f.:.7.G P 5.F e.;.H G G G F ) Q T & 7.P q.7 o | S.+.o.f o.O.o.f N #.#.",
"o.f o.f o.o.f f d &.S.z.  > i 9.4.7.p F q.D e.;.5.;.n n G 5._ _ z n H q.8 o | S.O.O.O.O.g O.#.N O.o.",
"o.c s f f f f o.d <.Z.X.  > i F ,.q.p F P F e.;.K G x F F F 5.e.n F F w.7 o | A.O.O.O.O.O.M M N #.+.",
"O.v o.o.f d o.o.c >.Z...  > i F :.5.1 F F b ;.G F x x b F F 5.e.x n n G 7 o | Z.O.f O.O.f O.%.=.O.#.",
"o.v O.o.f f o.f d -.Z...    i F b p < p p x p i p 8 i i p b G x p x b z , . | Z.f f g o.f O.@.N O.o.",
"d c s d s s s s s &.Z...      .   . . X , > > > > > > > > > O > O O > X . . / C.O.O.O.f O.O.O.N d c ",
"O.O.o.v c o.f v c %.V.Z     > > > O > O O > > > , , , , , , > , > O O X .   / C.O.O.O.M O.O.O.@.#.v ",
"o.@.f o.o.o.f f d >.J.G.D.D.D.F.F.F.D.D.D.G.D.D.G.D.D.D.F.F.D.F.D.D.G.D.D.D.G.J.#.#.O.O.#.#.#.m O.o.",
"o.#.%.#.O.o.v o.O.>.%.#.o.+.#.#.%.O.O.o.#.O.o.f O.O.#.%.O.%.&.o.O.O.O.O.O.O.o.#.>.#.O.o.O.O.#.m O.o."
};
