/* XPM */
static char *_7d9093e05bd4b45d879634303040e2fLOe7QktDHlYPd2yC[] = {
/* columns rows colors chars-per-pixel */
"50 50 236 2 ",
"   c #190C0B",
".  c #2B1A19",
"X  c #341C1B",
"o  c #391C18",
"O  c #250B0C",
"+  c #35211E",
"@  c #3B221D",
"#  c #351F22",
"$  c #342323",
"%  c #3D2523",
"&  c #3C2926",
"*  c #3C2B2B",
"=  c #3A2828",
"-  c #352A2A",
";  c #4A1D18",
":  c #561F1C",
">  c #43231E",
",  c #48261E",
"<  c #59241E",
"1  c #402421",
"2  c #432B25",
"3  c #432C2A",
"4  c #4B2D2B",
"5  c #4A2A26",
"6  c #522E2B",
"7  c #5C2E2A",
"8  c #582924",
"9  c #44312D",
"0  c #4B322D",
"q  c #55332E",
"w  c #5B312E",
"e  c #56382E",
"r  c #482D31",
"t  c #453534",
"y  c #4D3334",
"u  c #4B3A35",
"i  c #4D3B3B",
"p  c #47373A",
"a  c #533533",
"s  c #5A3533",
"d  c #5C3A36",
"f  c #533C3B",
"g  c #5B3C3B",
"h  c #543736",
"j  c #542E35",
"k  c #652E2A",
"l  c #6A322B",
"z  c #653A36",
"x  c #6C3A36",
"c  c #633D3C",
"v  c #6B3D3C",
"b  c #663534",
"n  c #733E3A",
"m  c #773A36",
"M  c #55413C",
"N  c #5C413E",
"B  c #4E403F",
"V  c #64423D",
"C  c #6A423E",
"Z  c #73423E",
"A  c #7C423E",
"S  c #7D493E",
"D  c #4F3E41",
"F  c #543E42",
"G  c #5B3D42",
"H  c #643D41",
"J  c #6C3C41",
"K  c #683E48",
"L  c #723E41",
"P  c #564244",
"I  c #5C4343",
"U  c #5B4845",
"Y  c #5C4649",
"T  c #5C4A4B",
"R  c #564846",
"E  c #5D514B",
"W  c #644343",
"Q  c #6C4444",
"!  c #644A46",
"~  c #6B4945",
"^  c #644549",
"/  c #6C464A",
"(  c #644B4B",
")  c #6C4B4C",
"_  c #734544",
"`  c #7B4543",
"'  c #744A45",
"]  c #7C4945",
"[  c #734549",
"{  c #7B464A",
"}  c #734C4C",
"|  c #7B4C4C",
" . c #66534E",
".. c #6B524D",
"X. c #625046",
"o. c #73524D",
"O. c #7C524D",
"+. c #72554B",
"@. c #634D51",
"#. c #6C4D52",
"$. c #744E52",
"%. c #7C4D51",
"&. c #704F58",
"*. c #655454",
"=. c #6B5454",
"-. c #6C5558",
";. c #6C5959",
":. c #755353",
">. c #7C5354",
",. c #735A55",
"<. c #7B5A54",
"1. c #74555A",
"2. c #7B5559",
"3. c #745C5B",
"4. c #7B5B5B",
"5. c #7C625E",
"6. c #74635E",
"7. c #6C615F",
"8. c #765E61",
"9. c #7B5D62",
"0. c #756162",
"q. c #7B6563",
"w. c #796967",
"e. c #756B6E",
"r. c #863E35",
"t. c #87443B",
"y. c #974A3C",
"u. c #824543",
"i. c #824A45",
"p. c #8C4B44",
"a. c #844C4B",
"s. c #894B48",
"d. c #984B44",
"f. c #83534D",
"g. c #8B524C",
"h. c #8D5147",
"j. c #92524B",
"k. c #985246",
"l. c #844E51",
"z. c #894E50",
"x. c #845454",
"c. c #8A5453",
"v. c #845A56",
"b. c #8B5955",
"n. c #835559",
"m. c #845B5C",
"M. c #8B5B5B",
"N. c #8B565A",
"B. c #945C5A",
"V. c #925754",
"C. c #A65248",
"Z. c #83635C",
"A. c #8E625D",
"S. c #8A685E",
"D. c #93625D",
"F. c #8B5D60",
"G. c #835B63",
"H. c #935C61",
"J. c #836263",
"K. c #846A65",
"L. c #8C6B6B",
"P. c #896767",
"I. c #936362",
"U. c #94686A",
"Y. c #85736D",
"T. c #8B746E",
"R. c #876E71",
"E. c #8B7573",
"W. c #8D7C79",
"Q. c #887976",
"!. c #957975",
"~. c #976F6D",
"^. c #A77A77",
"/. c #AF7972",
"(. c #A66259",
"). c #96837D",
"_. c #8E807F",
"`. c #A3837C",
"'. c #AB897F",
"]. c #917A80",
"[. c #8D8181",
"{. c #9D8A84",
"}. c #998786",
"|. c #9E9191",
" X c #A48C89",
".X c #A68885",
"XX c #A4938D",
"oX c #AA928D",
"OX c #AB9693",
"+X c #AB9A94",
"@X c #A79997",
"#X c #B39B96",
"$X c #B39D9B",
"%X c #B69998",
"&X c #B6948E",
"*X c #B4A39C",
"=X c #BBA39D",
"-X c #B7A69C",
";X c #ACA299",
":X c #BCA6A2",
">X c #BCABA5",
",X c #BDACAB",
"<X c #B3A5A3",
"1X c #BDB2AE",
"2X c #BEB2B1",
"3X c #C2ADA9",
"4X c #C2A8A4",
"5X c #C3B3AD",
"6X c #CBB3AD",
"7X c #C6B4B3",
"8X c #CCB6B3",
"9X c #CCBAB5",
"0X c #CCBCBB",
"qX c #C7B9B6",
"wX c #D2BDBA",
"eX c #D3B9B5",
"rX c #D3C1BC",
"tX c #DAC2BE",
"yX c #D6C1B7",
"uX c #CDC0B8",
"iX c #CFC1C2",
"pX c #D4C4C3",
"aX c #D9C5C3",
"sX c #DCCAC5",
"dX c #DCCCCA",
"fX c #D8C8C6",
"gX c #DFD1CB",
"hX c #DFD2D2",
"jX c #E3CCC5",
"kX c #E3CDCA",
"lX c #E5C6C3",
"zX c #E8D3CD",
"xX c #E8D5D3",
"cX c #F2DCD4",
"vX c #E7CED1",
"bX c #F8E5DE",
/* pixels */
"}.R.0.8.-.0.W.T.+X*X-X>XyXyXqX9XqX,X5X5X9XwX9XtXsXsX9X9XtXtXjXaXjXtXuXpXuX1XqX|.e.].[.e.7.@X$XQ.Q.e.",
"1.=.@.=.@.Y @.Y 6.>X5XoXXXXX@X XE.! =.q.=. .=.3.K.K.5.,.5.P.K.4.E.5.X. .*.,XpXQ.D p P R f f  .U D D ",
"#.3.1.3.*.;.( t *.>X@XU * 9 * U f g N 4 h 3 a I a y d g c d d | ' _ s 5   @XfX7.R P T *.1.$.} G.9.3.",
"1.1.4.8.8.Y F $ *.XXXXi + M M M V W o.W W d c ~ W Q / _ } ' Q ' ] v J >.a #XfX;.Y R 7.T c F.U.| / / ",
"$.G.2.1.1.@.Y *.* |.7Xq.f 4 G a h V V } ) :./ _ Q / c Q _ _ Q x ' | _ } { ].tXG D 8./ #.G.2.{ 2._ | ",
">.>./ / r G @.P p $X0X;.=.G G / } ~ ) _ Q / $.H | O./ } Q w z C | | ' o.[ &.lXR.j ^ 1.9.) 1.2.$.G.U.",
"x.%.$.G 9.Y Y P p $X8Xf y / } $.>.} / / } H } >.} >.>.| | %.x.f.' O.o.} d G tXw.G T #.@.) 1.2.U.I.P.",
"n.m./ / K -.-.D r ,X8XY W ^ G H $.>._ 2.c >.$.c ) Q [ | >.' [ | x.>.} } g =.dXw.Y Y P -.P.4.L.!.P.L.",
"m.$.} 1.-.3.Y - w.pX0X .N ( a Q $.$.} >.$./ ! ) ) Q c s [ [ } [ M.v.} o.g ;.fX*.$ * Y *.G.P.U.P.P.P.",
"o.Q W I R u . * <X0X9XR u ! I d ) ~ / ) ~ ( W ! ^ g a W H H Q c _ O.} ) & U hXe.. . . * p h h W ) ^ ",
"@ @ 3 3 & t B w.<XuXuX6.9 $ y o 0 4 0 4 3 & + + & $ 3 3 X % X @ , @ % @ $ Y ,X$Xe.[.0.-.@.Y U 0 & + ",
"oXoX+XoX XXX>XqX5X9XyXuX6X+X=X:XoX{.{.E.Y.W.).Y.W.W.W.E.Y.E.5.q.T.).).Z.}.:X9XsXxXhXsXiXwXpX5X5X>XOX",
"eXeX8XtXzXjXlXyXyXjXcXjXzXzXzXzXzXzXcXbXzXzXzXgXgXzXxXgXrXqXtXkX9X6X6X9XrXwXrXpXiX9X,X9XtX6XuXyXwXyX",
"5.+.J.P.P.P.P.I.5.S.'.'.`.S.K.!.P.~.`.=X6XeXuXtX5Xw.Y.q.6.5.w.K.1.K.K.5.=.,.K.3.;.=...X.,.,.X.+.N ..",
"g s Q Q w w z b S S Z C ] ~ o._ O.S Z f.O.N ~ lX'.2 ! c d ) ' o.| :.<.o.) V V ~ ! ~ V V ~ V V ' ' o.",
"Q Q C | M.] ` x < l C S O.f.w b z Z l w C Z V lX!.V | m.>.} x.~ Q C C / <.O.' 2.~ | C V C +.' v.x.} ",
"] Z ` i.A g.g.g.] m 8 ; , 7 8 ; x S ] k b 6 !.cX0.N >.>.$.[ } $.} } ) } ) } _ J z ' | V O.C +.C / %.",
"] ] A i.t.p.j.i.A A i.{ A Z Z Z S m i.i._ w %XkX3. .$.x.{ Q :.) / >.>.( h 6 Q a.a.] O.~.Z.V C ~ } ~ ",
"i.s.t.t.p.p.j.h.u.A u.V.u.A B.S u.V.s.u.i.z +.=X5.! o.n.%.n.:.W c [ } :.>.%.M.B.B.V.h.' ' o.x.Q _ _ ",
"z Z i.u.j.j.t.p.g.m s.` A s.i.D.c.s.V.V.` b e 4XK.) n.n.%.x.o.| Q :.m.Z.4.' n.I.B.D.f.A.A.I.| ] c.v.",
"_ ' a.A s.h.i.f.i.x s.i.m A l k x A i.i._ w ~ eXL.$.' _ _ v o.} m.4.:.,.<.>.x.{ ] b.f.f.O.Z.x.N.} } ",
"V O.' ` g.b.b.O.O.I.N.V.B.] ] C ' ' | ] ] V Z.6X,.d W _ n.n.J.q.+.+.) ! ..1.m.m.v.Z ' V C b / } d d ",
",.,.W C Z ' ' +.} d 7 b Z v.Z.C e , 2 q q 5 9 ).M @ q 4 6 4 % 9 2 0 + X O @ 4 a ~ 0 o , o > o o 0 u ",
"@XQ.4.o.C q @ @ @ 1 6 h q 6 , o o e X.o.! ! u Y.{.5.! N g f M u M M B U u u p P ! V ~ Z.!.!.E.}.*X$X",
"XXXX X'.).!.K.K.W.oX#XoX.X).q.Q.+X>X:X:X>X#X>XrXwXaXeX8X8X7X>X7X5X5X8X7X7X7X0X,X7XwXaXdXxXhXhXhXsXsX",
"rXkXeX6XlXjXzXzXjXrXwX9X3X3XpX5X5X5X>X>XqXsXrXrXsXtX3X%X4X8XiX0XrXrXaX,X@X<X2XiXpXdXdXdXiXfXhXdXdXsX",
"V +.' Z.`.&X&X`.~ E.lXvXq.f ;.;.( ( 3.3.5.T.q.4.:.4.$.W / ( ( ;.9.9.9.&.&.@.@.2X7X;.Y @.F D D R i F ",
"v b z 7 < 7 C z c H 7XwX8.y Y G y a W I W ) c d ~ W } 2.1.$.#.H &.Y / 8.8.@.D ].fXY R &.&.@.@.F P ^ ",
"t.h.b.t.S S ] v.L J %XaX;.F G g #.} / H } :.} ) %.x.>.| >.2.$.Q c g &.G.9.-.Y Q.fXR.1.&./ &.#.@.1.1.",
"d.k.h.j.y.h.j.t.n 6 %XwX3.Y #.G K $.[ H } >.} | | | x.m.%.x.n.%.2.&.$.G.P.1.P R.0X%X#.2.$.$.&.-.1.1.",
"C.C.C.k.t.h.(.h.V.k .XwX3.@.) / [ [ / d Q O.' x.x.b.c.N.M.%.[ } 1.2.G.L.#.^ F 0.tX4X/ 2.G.G.1.#.2.&.",
"C.y.y.k.y.k.k.V.V.z `.wX0.3 ( &.>.K $.[ / } ] A.c.b.x.>.| %.x.2.&.G.G.9.G ^ F ].kX X$.n.n.n.2.Q 1.2.",
"y.y.y.y.C.t.t.g.f.e P.rX5.& F ( 1.>./ / | | D.~.'./.A C &.2./ 1.1.:.4.) G I u E.lXL.} l.l.l.x.} 2.>.",
"C.y.r.r.d.m l m b q T.8X3.= ^ #.:.} ) #./ v h././.D.W W Y Y G K 1.^ ) ^ P f & Y.wX].%.{ a.n.m.x.>.:.",
"m t.t.t.t.t.A x C 6 Z.6X1.h ( @. .U ! U ~ O.' Z.S.Z.~ M R P r p j G G d G a * }.lX X[ m.O.2.m.Z.P.G.",
"t.S S m l : 8 w q o N *X;.X X y 3 % 9 & 3 2 , V C , + + $ # # $ X X 3 r 1 . 9 $X8XE.o 4 4 > @ a y 0 ",
"2 > , 5 , ; 5 q % u e.-X[.t + $ * Y  .X...+.W z e 0 N E E E T T Y *.9.9.8.W.:XwXjX).)  .W W M 2 i u ",
"Y.T.!.!..XoX#X+XXX;XuXqX5X<X>X*X3X8X6X6X6X4X=X=X X;X;X;X<X2X<X0XiXfXfXvXxXxXzXkXrXrXrX6X3X4X>X=X-X-X",
"yX8X3X4X%X%X%X*X-X-X5XrXqX$XXXOX&X%X'.).!.!.!.E.4X>X5X-X|._.w.e.].|.|.}..XoX%XwXtX6X6X6X6XeXeX4X6XeX",
"4.<.~ V ~ >.v.<.+.N W 5.4.) :.>.2.o.' ' ' V h ^ T.:X,XT * - u R * - T @.g g K m.K.Z.v.Z.U.^.].^.`..X",
"_ | v L l.l.| | f.v.%.%.n.G.n.G.n.G.c.n.{ } / r R.9Xq.9 T f T ;.*.f 3.J.4.I.v.S.v.O.<.+.v.O.f.x.b.x.",
"{ ` c.a.a.z.l.V.b.{ H.N.K L J J %.L b L | %.H r ].qX*.M 6.P P Y #.h 4 >.m.>.I.N.A.A.f.v.O.A.M.N.B.D.",
"i.c.z.a.{ ` a.z.a.c.%.n.%.K N.%.%.L { | } 2.K p }.pXT B U u P 1.} Q Q m.M.| a.{ ] ] z +.v.A.c.D.V.j.",
"u.c.c.c.V.c.c.x.{ z.l.{ L L L K %.{ %.[ >.1.Y t |.0XB P ( #.1.9.I.n.F.F.H.I.n.V.f.b.f.' w ] b.c.c.f.",
"{ Z g.] n z.c.g.l.a.z.{ { l.2.n.} %.>.K / #.T $ @X2XD @.1.4.9.J.U.H.H.m.v.%.| n.N.b.v.M.A.O.] b.c.c.",
"{ | { Q v { { | L L %.%.N.N.K n.x.>.%./ #.p - $ }.@XT 8.1.2.>.>.F.H.U.P.m.4.m.M.c.{ | ] b.D.D.] v } ",
"c } C _ %.J v v z.N.J _ { s J [ } K K K j G *   @X].D &.2.G.I.M.~.U.U.J.4.Z.2.| N.N.c.{ f.a.u.Z ` | ",
"Q c W Q W g w d d 7 c J h j H / c j j G &.G   $ 1Xe.p &.2.>.J.Z.M.<.1.q.;.! =.$.%.>.m.x.O.] f.f.o.C ",
"4 y 0 % @ 5 a @ @ 5 0 2 @ % 2 2 , 9 e 0 9 % 9 @X>X).M + 2 0 @ 5 4 2 3 2 & $ & M e 0 a V s 6 N e q e ",
"U Y ..q.Y.W.).T.oXoX X.X). XXX{.).).oX).W.XX3XqX+X5X{. .M M M X.! U i t t B u u u i N N N V +.~ W ! "
};
